<?xml version="1.0" standalone="no"?>
<!DOCTYPE svg PUBLIC "-//W3C//DTD SVG 20010904//EN"
 "http://www.w3.org/TR/2001/REC-SVG-20010904/DTD/svg10.dtd">
<svg version="1.0" xmlns="http://www.w3.org/2000/svg"
 width="300.000000pt" height="304.000000pt" viewBox="0 0 300.000000 304.000000"
 preserveAspectRatio="xMidYMid meet">
<metadata>
Created by potrace 1.10, written by Peter Selinger 2001-2011
</metadata>
<g transform="translate(0.000000,304.000000) scale(0.100000,-0.100000)"
fill="#000000" stroke="none">
<path d="M975 2961 c-55 -14 -92 -40 -130 -90 -167 -229 -99 -726 130 -944 88
-85 172 -110 245 -72 84 44 181 193 216 335 44 173 -13 386 -158 597 -106 153
-189 201 -303 174z m128 -45 c66 -27 201 -211 259 -351 58 -141 69 -259 37
-375 -38 -139 -118 -263 -192 -299 -54 -26 -70 -26 -121 -1 -105 51 -200 182
-254 350 -59 183 -57 410 6 551 50 114 164 168 265 125z"/>
<path d="M1987 2876 c-141 -59 -289 -220 -340 -369 -28 -84 -41 -244 -28 -349
23 -183 79 -289 181 -340 104 -52 193 -26 299 88 106 113 212 327 241 488 34
183 -30 404 -136 476 -54 36 -140 38 -217 6z m155 -18 c101 -30 168 -175 168
-362 0 -58 -4 -115 -9 -128 -5 -13 -17 -50 -27 -83 -10 -33 -33 -91 -52 -130
-111 -224 -241 -346 -345 -323 -64 13 -100 33 -127 70 -80 106 -95 160 -95
358 0 205 18 265 122 402 70 93 197 187 263 196 13 2 27 5 29 8 7 7 32 5 73
-8z"/>
<path d="M228 2082 c-56 -32 -90 -75 -120 -151 -19 -48 -22 -76 -22 -186 0
-117 3 -137 27 -197 76 -194 203 -336 336 -375 70 -20 158 -8 240 34 99 51
126 117 118 293 -8 196 -74 343 -222 494 -68 70 -89 85 -136 99 -86 26 -164
22 -221 -11z m192 -18 c70 -14 157 -92 240 -214 54 -80 78 -138 101 -248 54
-256 -14 -382 -215 -399 -68 -5 -80 -3 -129 21 -96 47 -181 144 -249 287 -37
77 -47 128 -48 235 0 187 70 312 185 327 33 5 62 2 115 -9z"/>
<path d="M2630 1940 c-136 -26 -324 -198 -413 -379 -41 -83 -42 -86 -46 -208
-4 -144 17 -232 70 -296 83 -101 241 -113 369 -28 120 81 228 224 275 366 41
120 33 286 -18 406 -42 100 -141 158 -237 139z m115 -53 c84 -48 128 -153 129
-312 0 -127 -27 -218 -98 -324 -98 -147 -210 -230 -322 -239 -170 -13 -249 87
-248 318 0 128 11 170 70 270 29 50 164 198 215 236 62 46 128 72 184 73 17 0
48 -9 70 -22z"/>
<path d="M1389 1505 c-20 -7 -77 -46 -125 -85 -399 -324 -637 -614 -715 -870
-77 -254 35 -445 261 -443 65 0 99 9 265 66 326 112 468 124 680 53 139 -46
221 -60 304 -53 89 8 131 22 187 60 156 105 129 333 -80 677 -142 233 -375
504 -481 557 -99 51 -220 66 -296 38z m181 -30 c88 -18 202 -105 310 -234 25
-29 50 -59 55 -65 45 -50 115 -146 170 -235 6 -9 22 -34 36 -56 43 -66 110
-205 140 -290 32 -87 38 -182 16 -242 -18 -49 -72 -100 -129 -121 -100 -37
-274 -25 -403 27 -99 41 -238 58 -345 42 -72 -11 -109 -17 -120 -21 -3 -1 -9
-3 -15 -4 -50 -8 -125 -31 -125 -38 0 -4 -8 -8 -17 -8 -9 0 -71 -19 -137 -42
-139 -48 -245 -59 -300 -31 -61 31 -95 64 -121 119 -22 46 -26 68 -24 127 1
40 5 81 9 92 4 11 16 47 26 80 10 33 32 85 50 115 39 69 96 163 104 170 3 3
31 37 62 76 109 137 402 413 543 510 55 39 127 48 215 29z"/>
</g>
</svg>
